M48
; DRILL file {KiCad (5.1.9)-1} date 04/12/21 08:31:06
; FORMAT={-:-/ absolute / inch / decimal}
; #@! TF.CreationDate,2021-04-12T08:31:06+02:00
; #@! TF.GenerationSoftware,Kicad,Pcbnew,(5.1.9)-1
; #@! TF.FileFunction,Plated,1,2,PTH
FMAT,2
INCH
T1C0.0157
T2C0.0315
T3C0.0394
T4C0.0400
T5C0.0551
T6C0.0630
T7C0.0945
T8C0.1260
%
G90
G05
T1
X8.3844Y-2.4982
X8.4476Y-3.2623
T2
X4.6895Y-2.2345
X4.6895Y-2.5345
X4.7895Y-2.2345
X4.7895Y-2.5345
X4.8895Y-2.2345
X4.8895Y-2.5345
X4.9895Y-2.2345
X4.9895Y-2.5345
X5.0895Y-2.2345
X5.0895Y-2.5345
X5.1895Y-2.2345
X5.1895Y-2.5345
X5.2895Y-2.2345
X5.2895Y-2.5345
X5.363Y-1.7465
X5.363Y-2.0465
X5.3895Y-2.2345
X5.3895Y-2.5345
X5.463Y-1.7465
X5.463Y-2.0465
X5.563Y-1.7465
X5.563Y-2.0465
X5.663Y-1.7465
X5.663Y-2.0465
X5.763Y-1.7465
X5.763Y-2.0465
X5.863Y-1.7465
X5.863Y-2.0465
X5.963Y-1.7465
X5.963Y-2.0465
X6.063Y-1.7465
X6.063Y-2.0465
X6.705Y-2.27
X6.705Y-2.57
X6.805Y-2.27
X6.805Y-2.57
X6.905Y-2.27
X6.905Y-2.57
X7.005Y-2.27
X7.005Y-2.57
X7.1035Y-1.9287
X7.105Y-2.27
X7.105Y-2.57
X7.202Y-1.9287
X7.205Y-2.27
X7.205Y-2.57
X7.305Y-2.27
X7.305Y-2.57
X7.3898Y-1.9256
X7.405Y-2.27
X7.405Y-2.57
X7.4882Y-1.9256
X7.78Y-1.94
X7.78Y-2.0384
X7.7839Y-2.4295
X7.7839Y-2.528
X7.79Y-2.18
X7.79Y-2.2784
X9.7898Y-3.195
X9.7898Y-3.4627
X9.7898Y-3.875
X9.7898Y-4.1427
X9.9Y-3.195
X9.9Y-3.2776
X9.9Y-3.38
X9.9Y-3.4627
X9.9Y-3.875
X9.9Y-4.1427
T3
X4.8675Y-1.315
X4.922Y-1.2032
X4.9765Y-1.315
X5.0311Y-1.2032
X5.0856Y-1.315
X5.1401Y-1.2032
X5.1946Y-1.315
X5.2492Y-1.2032
X5.3037Y-1.315
X5.35Y-5.16
X5.3582Y-1.2032
X5.4128Y-1.315
X5.45Y-5.16
X5.4673Y-1.2032
X5.5218Y-1.315
X5.5763Y-1.2032
X5.6309Y-1.315
X6.4628Y-1.3995
X6.5173Y-1.2877
X6.5719Y-1.3995
X6.6264Y-1.2877
X6.6809Y-1.3995
X6.7354Y-1.2877
X6.79Y-1.3995
X6.8445Y-1.2877
X6.899Y-1.3995
X8.1133Y-1.3995
X8.1678Y-1.2877
X8.2223Y-1.3995
X8.2769Y-1.2877
X8.3314Y-1.3995
X8.3859Y-1.2877
X8.4404Y-1.3995
X8.495Y-1.2877
X8.5495Y-1.3995
X9.4128Y-1.4005
X9.4673Y-1.2887
X9.5219Y-1.4005
X9.5764Y-1.2887
X9.6309Y-1.4005
X9.6854Y-1.2887
X9.74Y-1.4005
X9.7945Y-1.2887
X9.849Y-1.4005
T4
X4.69Y-2.9
X4.79Y-2.9
X4.89Y-2.9
X4.99Y-2.9
X5.05Y-4.8
X5.09Y-2.9
X5.15Y-4.8
X5.19Y-2.9
X5.25Y-4.8
X5.29Y-2.9
X5.35Y-4.8
X5.39Y-2.9
X5.45Y-4.8
X5.55Y-2.9
X5.55Y-4.8
X5.65Y-2.9
X5.75Y-2.9
X5.75Y-4.8
X5.85Y-2.9
X5.85Y-4.8
X5.95Y-2.9
X5.95Y-4.8
X6.05Y-2.9
X6.05Y-4.8
X6.15Y-2.9
X6.15Y-4.8
X6.25Y-2.9
X6.25Y-4.8
X6.45Y-2.9
X6.55Y-2.9
X6.65Y-2.9
X6.65Y-4.8
X6.75Y-2.9
X6.75Y-4.8
X6.85Y-2.9
X6.85Y-4.8
X6.95Y-2.9
X6.95Y-4.8
X7.05Y-2.9
X7.05Y-4.8
X7.15Y-2.9
X7.15Y-4.8
X7.25Y-4.8
X7.35Y-4.8
X7.45Y-2.9
X7.45Y-3.0
X7.45Y-3.1
X7.45Y-3.2
X7.45Y-3.3
X7.45Y-3.4
X7.45Y-3.5
X7.45Y-3.6
X7.45Y-3.7
X7.45Y-3.8
X7.45Y-3.9
X7.45Y-4.0
X7.45Y-4.1
X7.45Y-4.2
X7.45Y-4.3
X7.45Y-4.4
X7.45Y-4.5
X7.45Y-4.6
X7.55Y-2.9
X7.55Y-3.0
X7.55Y-3.1
X7.55Y-3.2
X7.55Y-3.3
X7.55Y-3.4
X7.55Y-3.5
X7.55Y-3.6
X7.55Y-3.7
X7.55Y-3.8
X7.55Y-3.9
X7.55Y-4.0
X7.55Y-4.1
X7.55Y-4.2
X7.55Y-4.3
X7.55Y-4.4
X7.55Y-4.5
X7.55Y-4.6
T5
X9.5481Y-2.4969
X9.6466Y-2.2016
X9.6466Y-2.3984
X9.6466Y-2.5953
X9.6466Y-2.7921
X9.745Y-2.3
X9.745Y-2.4969
X9.745Y-2.6937
X10.1387Y-2.3984
X10.1387Y-2.5953
T6
X4.8945Y-3.35
X4.8945Y-3.65
X4.8945Y-4.25
X4.895Y-3.95
X5.0795Y-3.35
X5.0795Y-3.65
X5.0795Y-4.25
X5.08Y-3.95
X5.2646Y-3.35
X5.2646Y-3.65
X5.2646Y-4.25
X5.265Y-3.95
X6.77Y-3.415
X6.77Y-3.72
X6.77Y-4.02
X6.955Y-3.415
X6.955Y-3.72
X6.955Y-4.02
X7.14Y-3.415
X7.14Y-3.72
X7.14Y-4.02
X8.665Y-2.7
X8.665Y-3.0
X8.665Y-3.3
X8.665Y-3.6
X8.665Y-3.9
X8.665Y-4.37
X8.665Y-4.67
X8.85Y-2.7
X8.85Y-3.0
X8.85Y-3.3
X8.85Y-3.6
X8.85Y-3.9
X8.85Y-4.37
X8.85Y-4.67
X9.035Y-2.7
X9.035Y-3.0
X9.035Y-3.3
X9.035Y-3.6
X9.035Y-3.9
X9.035Y-4.37
X9.035Y-4.67
X10.04Y-4.475
X10.04Y-4.66
X10.04Y-4.845
T7
X9.9419Y-2.2016
X9.9419Y-2.7921
T8
X4.5937Y-1.2591
X5.9047Y-1.2591
X6.1888Y-1.3436
X7.173Y-1.3436
X7.8393Y-1.3436
X8.8235Y-1.3436
X9.1388Y-1.3446
X10.123Y-1.3446
T3
G00X10.0417Y-3.0591
M15
G01X9.9827Y-3.0591
M16
G05
G00X10.0417Y-3.5985
M15
G01X9.9827Y-3.5985
M16
G05
G00X10.0417Y-3.7391
M15
G01X9.9827Y-3.7391
M16
G05
G00X10.0417Y-4.2785
M15
G01X9.9827Y-4.2785
M16
G05
G00X10.0437Y-3.2894
M15
G01X10.0437Y-3.3682
M16
G05
G00X10.0437Y-3.9694
M15
G01X10.0437Y-4.0482
M16
G05
T0
M30
